<?xml version="1.0" encoding="utf-8"?>
<!-- Generator: Adobe Illustrator 24.0.0, SVG Export Plug-In . SVG Version: 6.00 Build 0)  -->
<svg version="1.1" xmlns="http://www.w3.org/2000/svg" xmlns:xlink="http://www.w3.org/1999/xlink" x="0px" y="0px"
	 viewBox="0 0 468 468" style="enable-background:new 0 0 468 468;" xml:space="preserve">
<style type="text/css">
	.st0{fill:#64CBFA;}
	.st1{ fill: url(#Gradient1); }
	#iconShadow_1_{
		filter:blur(8px);
		mix-blend-mode: multiply;
	}
	#qrCode_1_{
		fill:hsl(210deg 30% 16%);
		mix-blend-mode: multiply;
	}
	.stop1 { stop-color: #ffffff; }
	.stop2 { stop-color: white; stop-opacity: 0; }
	.stop3 { stop-color: #e5eaee; }

	svg{transform:scale(0.8);}
</style>
<script>
console.log('svg script running');
var style=document.createElementNS('http://www.w3.org/2000/svg','style');

if(window.location.href.indexOf('127')!=-1){
	//style.innerHTML='svg{background:black}';	
}else{

}
document.getElementsByTagName('svg')[0].appendChild(style);
</script>
<defs>
	<linearGradient id="Gradient1"  x1="0" x2="1" y1="0" y2="1">
		<stop class="stop1" offset="0%"/>
		<stop class="stop3" offset="100%"/>
	</linearGradient>
</defs>
<g id="qrCode_1_">
	<path id="qrCode" d="M144,24v12c-5.9,0-18,0-24,0V24h-12V12c15,0,33,0,48,0v12H144z M456,12c0,27.5,0,56.5,0,84
		c-27.5,0-56.5,0-84,0c0-27.5,0-56.5,0-84C395.4,12,456,12,456,12z M444,24c-19.2,0-40.8,0-60,0c0,19.2,0,40.8,0,60
		c19.2,0,40.8,0,60,0C444,69,444,24,444,24z M252,24h-12v12h12V24z M228,36V24h-12V12h-12c0,10.7,0,25.3,0,36c10.7,0,25.3,0,36,0V36
		H228z M300,48V36c10.7,0,25.3,0,36,0v12h-12v12h12c0,6,0,18.1,0,24h12c0,6,0,18.1,0,24h12c0-10.7,0-25.3,0-36h-12V60h12
		c0-10.7,0-25.3,0-36h-12V12c-10.7,0-25.3,0-36,0v12c-6,0-18.1,0-24,0v12c-6,0-18.1,0-24,0v12h12v12h12V48H300z M396,36
		c0,10.7,0,25.3,0,36c10.7,0,25.3,0,36,0c0-10.7,0-25.3,0-36C426,36,396,36,396,36z M108,48v12h12V48H108z M180,60V48h12V36h-12V24
		c-6,0-18.1,0-24,0v12h-12v12h12v12h-12v12c6,0,18.1,0,24,0V60H180z M72,72c0-10.7,0-25.3,0-36c-10.7,0-25.3,0-36,0
		c0,10.7,0,25.3,0,36C42,72,72,72,72,72z M216,60v12h12V60H216z M264,72V60h-12V48h-12c0,6,0,18.1,0,24C246,72,258.1,72,264,72z
		 M132,72V60h-12c0,6,0,18.1,0,24h12V72z M276,84V72h-12v12H276z M300,72h12v12h12c0-6,0-18.1,0-24c-10.7,0-25.3,0-36,0
		c0,6,0,18.1,0,24h12V72z M12,96c0-27.5,0-56.5,0-84c27.5,0,56.5,0,84,0c0,27.5,0,56.5,0,84c-19.2,0-40.8,0-60,0
		C30.1,96,18,96,12,96z M24,84c19.2,0,40.8,0,60,0c0-19.2,0-40.8,0-60c-19.2,0-40.8,0-60,0C24,39,24,84,24,84z M120,84h-12v12h12V84
		z M144,96V84h-12v12H144z M216,96V84h-12v12H216z M252,96h12V84h-12V96z M288,96V84h-12v12H288z M324,96h12V84h-12V96z M228,108v12
		h12c0-15,0-33,0-48h-12c0,6,0,18.1,0,24h-12v12H228z M36,120h12v-12H36V120z M84,120h12v-12c-10.7,0-25.3,0-36,0c0,6,0,18.1,0,24
		h12v-12H84z M108,108v12h12v-12H108z M204,108v12h12v-12H204z M336,108v12h12v-12H336z M372,120v-12h-12v12H372z M444,120h-12v12
		h12v12h-12v12h12v12c-6,0-18.1,0-24,0c0-6,0-18.1,0-24h-12v-12c-10.7,0-25.3,0-36,0v12h12v12h-12c0,10.7,0,25.3,0,36
		c10.7,0,25.3,0,36,0v-12c-6,0-18.1,0-24,0v-12h12v-12h12c0,6,0,18.1,0,24h12v12h12v12h12v-12h12c0-27.5,0-56.5,0-84h-12V120z
		 M348,132h12v-12h-12V132z M420,120v-12h-12c0,6,0,18.1,0,24h12V120z M48,132H36v12h12V132z M180,144v-12c-6,0-18.1,0-24,0v12
		C162,144,174.1,144,180,144z M192,144v12c6,0,18.1,0,24,0v12c6,0,18.1,0,24,0v-12h-12c0-10.7,0-25.3,0-36h-12c0,6,0,18.1,0,24h-12
		c0-6,0-18.1,0-24h-12v-12h12V96h-12V84h12V72h-12V60h-12v12h-12v12h12v12h-12V84h-12c0,10.7,0,25.3,0,36c6,0,18.1,0,24,0v12h12V144
		z M60,156v-12H48v12H60z M156,144h-12v12h12V144z M348,156h12c0,5.9,0,18,0,24c-5.9,0-18,0-24,0c0-5.9,0-18,0-24h-12v12h-12v12h12
		v12h12v12h-12c0,15,0,33,0,48c-5.9,0-18,0-24,0v12c-10.7,0-25.3,0-36,0v-12c-5.9,0-18,0-24,0c0-5.9,0-18,0-24h-12
		c0,10.7,0,25.3,0,36c-5.9,0-18,0-24,0v-12h-12v12h12c0,5.9,0,18,0,24h12v-12h12v-12h12v12h12v12h12v-12c5.9,0,18,0,24,0v12h12v12
		h12v-12h12c0,10.7,0,25.3,0,36h-12v12c27.5,0,56.5,0,84,0v12c5.9,0,18,0,24,0v12h-12c0,10.7,0,25.3,0,36h12v12c-5.9,0-18,0-24,0v12
		h12v12h12v12h-12v12h-12c0-5.9,0-18,0-24h-12c0-5.9,0-18,0-24h-12v12h-12v-12h-12v-12h-12v12h-12v12h-12v-12h-12v12h-12
		c0-10.7,0-25.3,0-36h12v12h12v-12c5.9,0,18,0,24,0v-12h12v-12h-12v-12h-12v12h-12v-12h-12v-12c-5.9,0-18,0-24,0v-12h-12v-12h12v-12
		c-15,0-33,0-48,0v12c5.9,0,18,0,24,0c0,10.7,0,25.3,0,36h12v12c5.9,0,18,0,24,0v-12h12v12h12c0,5.9,0,18,0,24h-12v-12
		c-15,0-33,0-48,0v-12h-12c0-10.7,0-25.3,0-36h-12v12h-12v-12h-12v12h-12c0-15,0-33,0-48c-5.9,0-18,0-24,0v12h-12c0-5.9,0-18,0-24
		h12v-12h12v-12c-5.9,0-18,0-24,0c0-19.2,0-40.8,0-60h-12c0,5.9,0,18,0,24c-10.7,0-25.3,0-36,0v12c10.7,0,25.3,0,36,0
		c0,5.9,0,18,0,24c-5.9,0-18,0-24,0v12h12v12h-12c0,10.7,0,25.3,0,36h-12v-12H96v-12h12v-12H96v-12h12c0-5.9,0-18,0-24
		c-5.9,0-18,0-24,0v-12h12v-12H84v12H72c0,5.9,0,18,0,24c5.9,0,18,0,24,0v12H84v12h12v12c-5.9,0-18,0-24,0v12c-15,0-33,0-48,0v-12
		H12v-12c5.9,0,18,0,24,0v12h12v-12c5.9,0,18,0,24,0v-12c-15,0-33,0-48,0v-12h12v-12H24v12H12c0-5.9,0-18,0-24h12v-12h12v-12
		c5.9,0,18,0,24,0v-12h12v-12H60v12H48v-12c-5.9,0-18,0-24,0c0,5.9,0,18,0,24H12c0-23.4,0-48.6,0-72h12v12h12v12h12v12h12v-12h12v12
		h12v12h12v-12H84v-12h12v-12c-5.9,0-18,0-24,0v-12c15,0,33,0,48,0v-12c5.9,0,18,0,24,0v12h-12c0,5.9,0,18,0,24h-12v-12h-12v12h12
		v12h-12c0,5.9,0,18,0,24c-5.9,0-18,0-24,0v12c10.7,0,25.3,0,36,0c0-10.7,0-25.3,0-36h12v-12h12v12h12v12h12c0,5.9,0,18,0,24h12
		c0-10.7,0-25.3,0-36c10.7,0,25.3,0,36,0v12h12v12c-10.7,0-25.3,0-36,0v12h12v12c5.9,0,18,0,24,0c0-5.9,0-18,0-24h12v-12h12v12h12
		v-12h12c0-15,0-33,0-48h-12c0,10.7,0,25.3,0,36h-12c0-5.9,0-18,0-24h-12c0-5.9,0-18,0-24h12v-12h12v12h12v-12h12V96h12V84h12v12h12
		c0,15,0,33,0,48c5.9,0,18,0,24,0V156z M60,216H48c0,5.9,0,18,0,24h12C60,234.1,60,222,60,216z M396,360c-10.7,0-25.3,0-36,0
		c0,10.7,0,25.3,0,36c10.7,0,25.3,0,36,0c0-5.9,0-18,0-24V360z M204,300v12h12v-12H204z M216,228c-5.9,0-18,0-24,0v-12h-12v12h-12
		v12c15,0,33,0,48,0V228z M288,144h12v-12h12c0-5.9,0-18,0-24h-12c0,5.9,0,18,0,24h-12V144z M252,204v12h12v-12H252z M312,228
		c-5.9,0-18,0-24,0v-12h-12v12h-12v12h12v12h12v-12c5.9,0,18,0,24,0V228z M300,180h-12v12h12V180z M300,168v-12h-12v12H300z
		 M360,144v12h12v-12H360z M168,156h-12v12c6,0,18.1,0,24,0v-12H168z M420,216v-12h-12c0,10.7,0,25.3,0,36c10.7,0,25.3,0,36,0v12h12
		c0-10.7,0-25.3,0-36C450,216,420,216,420,216z M384,240c-6,0-18.1,0-24,0c0-6,0-18.1,0-24h12v12h12v-12h12v-12c-15,0-33,0-48,0
		c0,15,0,33,0,48h-12v12c6,0,18.1,0,24,0c0,6,0,18.1,0,24h12c0-6,0-18.1,0-24c6,0,18.1,0,24,0v-12h-12V240z M396,252h12v-12h-12V252
		z M144,264h12v-12h-12V264z M432,264h-12v12h12c0,6,0,18.1,0,24c6,0,18.1,0,24,0c0-10.7,0-25.3,0-36C450,264,437.9,264,432,264z
		 M144,288v-12h-12v12H144z M300,288h12c0-6,0-18.1,0-24h-12C300,270,300,282.1,300,288z M396,276v12c6,0,18.1,0,24,0v-12
		C414,276,401.9,276,396,276z M348,300h12v-12h-12V300z M12,312h12v-12H12V312z M84,312h12v-12H84V312z M336,312h12v-12h-12V312z
		 M372,312h-12v12c6,0,18.1,0,24,0v-12c6,0,18.1,0,24,0v-12c-6,0-18.1,0-24,0v-12h-12C372,294,372,306.1,372,312z M444,324h-12v12
		h12v12h12c0-10.7,0-25.3,0-36h-12V324z M12,324v12h12v-12H12z M84,336h12v-12c-10.7,0-25.3,0-36,0v-12H48v12H36v12H24v12h12v12h12
		v-12c6,0,18.1,0,24,0v-12H84z M120,348v-12c-6,0-18.1,0-24,0v12c-6,0-18.1,0-24,0v12c10.7,0,25.3,0,36,0v-12H120z M180,348h12v-12
		h-12V348z M216,348v-12h-12v12H216z M12,360h12v-12H12V360z M432,360h12v-12h-12V360z M228,360v12c-15,0-33,0-48,0c0,5.9,0,18,0,24
		h12v12h-12c0,10.7,0,25.3,0,36h-12v12c-15,0-33,0-48,0c0-5.9,0-18,0-24c5.9,0,18,0,24,0c0-5.9,0-18,0-24h12v12h12v-12h-12v-12
		c-5.9,0-18,0-24,0v12c-5.9,0-18,0-24,0c0-5.9,0-18,0-24h12v-12h-12v-12c5.9,0,18,0,24,0c0-15,0-33,0-48h12v-12h12v12h12v12h12v12
		h-12v12h12v12h12v-12h12v12h12H228z M144,348h12v-12h-12V348z M168,372c-10.7,0-25.3,0-36,0v12c10.7,0,25.3,0,36,0V372z M96,372
		c0,27.5,0,56.5,0,84c-27.5,0-56.5,0-84,0c0-27.5,0-56.5,0-84C31.2,372,90,372,96,372z M84,384c-19.2,0-40.8,0-60,0
		c0,19.2,0,40.8,0,60c19.2,0,40.8,0,60,0C84,429,84,384,84,384z M372,384h12v-12h-12V384z M432,372h-12v12c10.7,0,25.3,0,36,0
		c0-6,0-18.1,0-24h-12v12H432z M276,384h-12v12h12V384z M36,396c0,10.7,0,25.3,0,36c10.7,0,25.3,0,36,0c0-10.7,0-25.3,0-36
		C66,396,36,396,36,396z M204,396v12h12v-12H204z M216,420h12v-12h-12V420z M264,408v-12h-12c0-6,0-18.1,0-24c-6,0-18.1,0-24,0
		c0,10.7,0,25.3,0,36c6,0,18.1,0,24,0v12c6,0,18.1,0,24,0v-12H264z M432,420h12v12h12c0-6,0-18.1,0-24c-10.7,0-25.3,0-36,0v12H432z
		 M108,420v12h12v-12H108z M276,420v12h12v-12H276z M336,420v12c-6,0-18.1,0-24,0v12h-12v-12h-12v12c-6,0-18.1,0-24,0v12
		c19.2,0,40.8,0,60,0v-12c6,0,18.1,0,24,0v12c10.7,0,25.3,0,36,0v-12h-12v-12h-12v-12C354,420,341.9,420,336,420z M216,432h-12v12
		h12V432z M240,432h-12v12h12V432z M432,444v12c6,0,18.1,0,24,0v-12h-12v-12h-12V444z M192,456h12v-12c-6,0-18.1,0-24,0v12H192z
		 M228,456v-12h-12v12H228z"/>
</g>
<g id="iconShadow_1_">
	<path id="iconShadow" class="st0" d="M274.7,298.7C274.7,298.7,274.7,298.7,274.7,298.7c-6.7,7.4-23.7,7-40.7,7.3
		c-17-0.4-34,0-40.7-7.3c0,0,0,0,0,0c-7.4-6.7-7-23.7-7.3-40.7c0.4-17,0-34,7.3-40.7c0,0,0,0,0,0c6.7-7.4,23.7-7,40.7-7.3
		c17,0.4,34,0,40.7,7.3c0,0,0,0,0,0c7.4,6.7,7,23.7,7.3,40.7C281.6,275,282,292,274.7,298.7z"/>
</g>
<g id="iconBoard_1_">
	<path id="iconBoard" class="st1" d="M284.9,284.9C284.9,284.9,284.9,284.9,284.9,284.9c-8.3,9.2-29.6,8.7-50.9,9.1
		c-21.3-0.4-42.5,0-50.9-9.1c0,0,0,0,0,0c-9.2-8.3-8.7-29.6-9.1-50.9c0.4-21.3,0-42.5,9.1-50.9c0,0,0,0,0,0
		c8.3-9.2,29.6-8.7,50.9-9.1c21.3,0.4,42.5,0,50.9,9.1c0,0,0,0,0,0c9.2,8.3,8.7,29.6,9.1,50.9C293.6,255.3,294,276.5,284.9,284.9z"
		/>
</g>
<g id="yiu_1_">
	<path id="yiu" class="st0" d="M201.8,264c-0.7,0-1.3-0.1-1.9-0.4c-2.6-1.1-3.9-4.1-2.8-6.6l3.8-9.5l-9.4-23.4
		c-0.5-1.3-0.5-2.7,0-3.9c0.5-1.2,1.5-2.2,2.8-2.7c0.6-0.2,1.2-0.4,1.9-0.4c2.1,0,4,1.2,4.7,3.2l5.4,13.5L212,220
		c0.8-1.9,2.7-3.2,4.7-3.2c0.7,0,1.3,0.1,1.9,0.4c1.3,0.5,2.2,1.5,2.8,2.7c0.5,1.2,0.6,2.7,0,3.9l-14.9,37
		C205.8,262.8,203.9,264,201.8,264z M233.3,251.4c-2.8,0-5.1-2.3-5.1-5.1v-24.4c0-2.8,2.3-5.1,5.1-5.1c2.8,0,5.1,2.3,5.1,5.1v24.4
		C238.4,249.1,236.1,251.4,233.3,251.4z M261.8,251.4c-8.3,0-15.1-6.8-15.1-15.1v-14.4c0-2.8,2.3-5.1,5.1-5.1c2.8,0,5.1,2.3,5.1,5.1
		v14.4c0,2.7,2.2,4.8,4.8,4.8c2.7,0,4.8-2.2,4.8-4.8v-14.4c0-2.8,2.3-5.1,5.1-5.1s5.1,2.3,5.1,5.1v14.4
		C276.9,244.6,270.1,251.4,261.8,251.4z M233.3,204c3,0,5.4,2.4,5.4,5.4s-2.4,5.4-5.4,5.4c-3,0-5.4-2.4-5.4-5.4S230.3,204,233.3,204
		z"/>
</g>
<p class='danmu'>内容测试</p>
</svg>
