<?xml version="1.0" encoding="utf-8"?>
<!-- Generator: Adobe Illustrator 24.0.0, SVG Export Plug-In . SVG Version: 6.00 Build 0)  -->
<svg version="1.1" xmlns="http://www.w3.org/2000/svg" xmlns:xlink="http://www.w3.org/1999/xlink" x="0px" y="0px"
	 viewBox="0 0 360 360" style="enable-background:new 0 0 360 360;" xml:space="preserve">

<style>
svg{filter: url(#goo);}

#y,#i,#u{display:none;}

#bold{filter:url(#filter);}
</style>
<defs>
<filter id="goo">
<feGaussianBlur in="SourceGraphic" stdDeviation="3" result="blur" />
<feColorMatrix in="blur" mode="matrix" values="	1 0 0 0 0                 
												0 1 0 0 0
												0 0 1 0 0
												0 0 0 48 -12
												" result="goo" />
<feBlend in="SourceGraphic" in2="goo" />
</filter>



<filter id="filter" x="-20%" y="-20%" width="140%" height="140%" filterUnits="objectBoundingBox" primitiveUnits="userSpaceOnUse" color-interpolation-filters="sRGB">
	<feGaussianBlur stdDeviation="20" x="0%" y="0%" width="100%" height="100%" in="SourceGraphic" edgeMode="none" result="blur">
	<animate attributeName='stdDeviation'
			 attributeType="XML"
             values="0;12;20;20;12;0"
			 keyTimes="0;0.3;0.4;0.6;0.7;1"

             begin="-1" dur="2" repeatCount="indefinite"
             fill="freeze"></animate>
			 </feGaussianBlur> 
	<feColorMatrix type="matrix" values="1 0 0 0 0
										 0 1 0 0 0
										 0 0 1 0 0
										 0 0 0 24 -20" x="0%" y="0%" width="100%" height="100%" in="blur" result="colormatrix"/>
</filter>


</defs>


<!-- <circle cx="175" cy="75" r="20" fill="red">
    <animate attributeName="r"
             attributeType="XML"
             values="20;50;20"
             begin="0" dur="1" repeatCount="indefinite"
             fill="freeze"></animate>
</circle> -->



<g id="bold">
	<path id="XMLID_1697_" d="M78.3,276.1c-2.1,0-4.2-0.4-6.1-1.2c-8.4-3.4-12.5-13-9.1-21.3l12.3-30.5l-30.1-75
		c-1.6-4.1-1.6-8.5,0.1-12.5c1.7-4,4.9-7.1,9-8.8c2-0.8,4-1.2,6.1-1.2c6.7,0,12.7,4,15.2,10.3l17.4,43.3l17.8-44.2
		c2.5-6.2,8.5-10.3,15.2-10.3c2.1,0,4.2,0.4,6.1,1.2c4.1,1.6,7.2,4.8,9,8.8c1.7,4,1.8,8.5,0.1,12.5L93.5,265.9
		C91,272.1,85,276.1,78.3,276.1z"/>
	<path id="XMLID_1699_" d="M179.1,235.7c-9,0-16.4-7.4-16.4-16.4v-78.2c0-9,7.4-16.4,16.4-16.4c9,0,16.4,7.4,16.4,16.4v78.2
		C195.5,228.4,188.1,235.7,179.1,235.7z"/>
	<path id="XMLID_1701_" d="M270.5,235.7c-26.6,0-48.3-21.7-48.3-48.3v-46.3c0-9,7.4-16.4,16.4-16.4s16.4,7.4,16.4,16.4v46.3
		c0,8.6,7,15.5,15.5,15.5c8.6,0,15.5-7,15.5-15.5v-46.3c0-9,7.4-16.4,16.4-16.4s16.4,7.4,16.4,16.4v46.3
		C318.8,214,297.1,235.7,270.5,235.7z"/>
	<circle id="XMLID_1703_" cx="179.1" cy="101.2" r="17.4"> </circle>
</g>

<g id="u">
	<circle id="XMLID_4353_" cx="272.7" cy="226" r="7.7"> 
	<animate attributeName='cx'
			 attributeType="XML"
             values="272.7;320;360"
			 keyTimes="0;0.2;1"
             begin="0" dur="10" repeatCount="indefinite"
             fill="freeze"
	></animate>
	</circle>
	
	<circle id="XMLID_4352_" cx="289.7" cy="222.2" r="5.9"> </circle>
	<circle id="XMLID_4351_" cx="300.3" cy="207.1" r="9.2"> </circle>
	<circle id="XMLID_4350_" cx="303.8" cy="198.4" r="9.6"> </circle>
	<circle id="XMLID_4349_" cx="308.5" cy="190.3" r="6.6"> </circle>
	<circle id="XMLID_4348_" cx="307.4" cy="168.7" r="8.2"> </circle>
	<circle id="XMLID_4347_" cx="305.9" cy="147.5" r="9.8"> </circle>
	<circle id="XMLID_4346_" cx="302.7" cy="133.5" r="4.9"> </circle>
	<circle id="XMLID_4345_" cx="296.3" cy="143.5" r="9.3"> </circle>
	<circle id="XMLID_4344_" cx="292.1" cy="158.9" r="5.3"> </circle>
	<circle id="XMLID_4343_" cx="299.7" cy="183.6" r="12.9"> </circle>
	<circle id="XMLID_4342_" cx="291.7" cy="195" r="6.4"> </circle>
	<ellipse id="XMLID_4341_" transform="matrix(0.1602 -0.9871 0.9871 0.1602 10.3311 448.9427)" cx="269" cy="218.4" rx="12.8" ry="12.8"> </ellipse>
	<ellipse id="XMLID_4340_" cx="246.7" cy="200.7" rx="8.4" ry="8.4"> </ellipse>
	<circle id="XMLID_4339_" cx="242.9" cy="172.9" r="8.9"> </circle>
	<circle id="XMLID_4338_" cx="242.5" cy="163.4" r="9.2"> </circle>
	<circle id="XMLID_4337_" cx="239.9" cy="150.6" r="11.9"> </circle>
	<ellipse id="XMLID_4336_" cx="240.3" cy="141.6" rx="12.4" ry="12.4"> </ellipse>
	<circle id="XMLID_4335_" cx="235.6" cy="140.5" r="12"> </circle>
	<circle id="XMLID_4334_" cx="231.5" cy="151.7" r="8.5"> </circle>
	<circle id="XMLID_4333_" cx="230.9" cy="177.5" r="7.9"> </circle>
	<circle id="XMLID_4332_" cx="233.5" cy="187.5" r="10.5"> </circle>
	<circle id="XMLID_4331_" cx="237.9" cy="205.3" r="9.9"> </circle>
	<circle id="XMLID_4330_" cx="239.7" cy="215.7" r="5.5"> </circle>
	<ellipse id="XMLID_4329_" transform="matrix(0.3162 -0.9487 0.9487 0.3162 -32.5605 396.8254)" cx="259" cy="221" rx="11.2" ry="11.2"> </ellipse>
	<ellipse id="XMLID_4328_" transform="matrix(0.1602 -0.9871 0.9871 0.1602 4.03 457.5367)" cx="270.9" cy="226.4" rx="8.3" ry="8.3"> </ellipse>
	<circle id="XMLID_4327_" cx="270.2" cy="228.6" r="5.7"> </circle>
	<circle id="XMLID_4326_" cx="280.8" cy="228.3" r="3.8"> </circle>
	<circle id="XMLID_4325_" cx="284.7" cy="226.5" r="4.9"> </circle>
	<circle id="XMLID_4324_" cx="288.1" cy="223.2" r="5.9"> </circle>
	<circle id="XMLID_4323_" cx="296.6" cy="218" r="5.5"> </circle>
	<circle id="XMLID_4322_" cx="302.6" cy="211" r="5.1"> </circle>
	<circle id="XMLID_4321_" cx="309" cy="203" r="3.6"> </circle>
	<circle id="XMLID_4320_" cx="310.4" cy="195.5" r="3.6"> </circle>
	<circle id="XMLID_4319_" cx="312.5" cy="189.1" r="2.9"> </circle>
	<circle id="XMLID_4318_" cx="309.7" cy="185.1" r="5.9"> </circle>
	<circle id="XMLID_4317_" cx="312.7" cy="181" r="2.9"> </circle>
	<circle id="XMLID_4316_" cx="311.4" cy="176.1" r="4.2"> </circle>
	<circle id="XMLID_4315_" cx="312.7" cy="171.4" r="2.9"> </circle>
	<circle id="XMLID_4314_" cx="311.3" cy="163.5" r="4.4"> </circle>
	<circle id="XMLID_4313_" cx="312.5" cy="154.9" r="3.1"> </circle>
	<circle id="XMLID_4312_" cx="312.2" cy="145.9" r="3.4"> </circle>
	<circle id="XMLID_4311_" cx="310.2" cy="138.4" r="3.6"> </circle>
	<circle id="XMLID_4310_" cx="307.6" cy="135.6" r="5"> </circle>
	<circle id="XMLID_4309_" cx="303.5" cy="130.8" r="2.1"> </circle>
	<circle id="XMLID_4308_" cx="297.2" cy="131.6" r="2.2"> </circle>
	<circle id="XMLID_4307_" cx="295.1" cy="135.9" r="5.8"> </circle>
	<circle id="XMLID_4306_" cx="293.9" cy="139.7" r="5.7"> </circle>
	<circle id="XMLID_4305_" cx="291.3" cy="143.7" r="4.8"> </circle>
	<circle id="XMLID_4304_" cx="291.6" cy="149" r="4.7"> </circle>
	<circle id="XMLID_4303_" cx="291.1" cy="159" r="4.3"> </circle>
	<circle id="XMLID_4302_" cx="290" cy="169.1" r="3.1"> </circle>
	<circle id="XMLID_4301_" cx="289.1" cy="177.1" r="2.2"> </circle>
	<circle id="XMLID_4300_" cx="292" cy="189.2" r="5.3"> </circle>
	<circle id="XMLID_4299_" cx="290" cy="197.5" r="5.5"> </circle>
	<circle id="XMLID_4298_" cx="278.1" cy="208.6" r="5.1"> </circle>
	<circle id="XMLID_4297_" cx="264.1" cy="209.9" r="5.4"> </circle>
	<ellipse id="XMLID_4296_" cx="253.2" cy="204.4" rx="5.8" ry="5.8"> </ellipse>
	<circle id="XMLID_4295_" cx="249.2" cy="191.4" r="3.3"> </circle>
	<circle id="XMLID_4294_" cx="246.8" cy="183.4" r="5"> </circle>
	<circle id="XMLID_4293_" cx="249" cy="179" r="2.8"> </circle>
	<circle id="XMLID_4292_" cx="247.5" cy="172.1" r="4.3"> </circle>
	<circle id="XMLID_4291_" cx="248.5" cy="163.4" r="3.2"> </circle>
	<circle id="XMLID_4290_" cx="246.9" cy="155.8" r="4.8"> </circle>
	<circle id="XMLID_4289_" cx="247.9" cy="150.1" r="3.8"> </circle>
	<circle id="XMLID_4288_" cx="248.1" cy="143.2" r="3.6"> </circle>
	<circle id="XMLID_4287_" cx="244.8" cy="133.8" r="3.3"> </circle>
	<circle id="XMLID_4286_" cx="236.3" cy="131.6" r="4.1"> </circle>
	<circle id="XMLID_4285_" cx="229.2" cy="134.3" r="3.1"> </circle>
	<circle id="XMLID_4284_" cx="228.3" cy="140" r="4.2"> </circle>
	<circle id="XMLID_4283_" cx="225.6" cy="143.5" r="2.6"> </circle>
	<circle id="XMLID_4282_" cx="225.4" cy="154.4" r="2.5"> </circle>
	<circle id="XMLID_4281_" cx="228.1" cy="162.2" r="5.1"> </circle>
	<circle id="XMLID_4280_" cx="228.9" cy="169.2" r="5.9"> </circle>
	<circle id="XMLID_4279_" cx="226" cy="179.3" r="3.1"> </circle>
	<circle id="XMLID_4278_" cx="226.7" cy="188" r="3.7"> </circle>
	<circle id="XMLID_4277_" cx="231" cy="198.5" r="5.8"> </circle>
	<circle id="XMLID_4276_" cx="230.8" cy="206.2" r="3.5"> </circle>
	<circle id="XMLID_4275_" cx="234.4" cy="212.5" r="2.9"> </circle>
	<circle id="XMLID_4274_" cx="239.2" cy="218.4" r="3.6"> </circle>
	<circle id="XMLID_4273_" cx="248.3" cy="225.1" r="3.1"> </circle>
	<circle id="XMLID_4272_" cx="254.8" cy="227.1" r="4.4"> </circle>
	<ellipse id="XMLID_4271_" transform="matrix(0.1602 -0.9871 0.9871 0.1602 -6.5971 453.646)" cx="263.3" cy="230.7" rx="2.6" ry="2.6"> </ellipse>
	<circle id="XMLID_4270_" cx="269.8" cy="232.1" r="2.5"> </circle>
	<circle id="XMLID_4269_" cx="280.1" cy="225.3" r="6.9"> </circle>
	<circle id="XMLID_4268_" cx="294.7" cy="216" r="8.2"> </circle>
	<circle id="XMLID_4267_" cx="307.1" cy="205.9" r="4.2"> </circle>
	<circle id="XMLID_4266_" cx="310.4" cy="187" r="5.3"> </circle>
	<circle id="XMLID_4265_" cx="308.6" cy="164.7" r="7.1"> </circle>
	<circle id="XMLID_4264_" cx="309.4" cy="143.5" r="6.3"> </circle>
	<circle id="XMLID_4263_" cx="305.6" cy="137.2" r="7.3"> </circle>
	<circle id="XMLID_4262_" cx="295.7" cy="134.6" r="4.4"> </circle>
	<circle id="XMLID_4261_" cx="292.7" cy="141.4" r="5.2"> </circle>
	<circle id="XMLID_4260_" cx="298.2" cy="162.9" r="11.4"> </circle>
	<circle id="XMLID_4259_" cx="296.3" cy="170.9" r="9.5"> </circle>
	<circle id="XMLID_4258_" cx="298.5" cy="180.7" r="11.7"> </circle>
	<circle id="XMLID_4257_" cx="292.3" cy="197.2" r="7.7"> </circle>
	<circle id="XMLID_4256_" cx="276.6" cy="214.6" r="10.5"> </circle>
	<circle id="XMLID_4255_" cx="250.6" cy="202" r="6"> </circle>
	<circle id="XMLID_4254_" cx="240.7" cy="179.3" r="11"> </circle>
	<circle id="XMLID_4253_" cx="241.1" cy="158.5" r="10.7"> </circle>
	<circle id="XMLID_4252_" cx="238.9" cy="140.5" r="11.4"> </circle>
	<circle id="XMLID_4251_" cx="236.8" cy="140.2" r="11.5"> </circle>
	<circle id="XMLID_4250_" cx="234.3" cy="144.1" r="11.3"> </circle>
	<circle id="XMLID_4249_" cx="234.4" cy="155.9" r="11.4"> </circle>
	<circle id="XMLID_4248_" cx="227.6" cy="165.1" r="4.6"> </circle>
	<circle id="XMLID_4247_" cx="232.3" cy="184.6" r="9.4"> </circle>
	<circle id="XMLID_4246_" cx="235.2" cy="196.1" r="10.4"> </circle>
	<circle id="XMLID_4245_" cx="233.8" cy="209.2" r="4.3"> </circle>
	<ellipse id="XMLID_4244_" cx="249.8" cy="222.7" rx="6" ry="6"> </ellipse>
	<ellipse id="XMLID_4243_" transform="matrix(0.3162 -0.9487 0.9487 0.3162 -31.0573 389.1111)" cx="254.4" cy="216.1" rx="10.8" ry="10.8"> </ellipse>
	<circle id="XMLID_4242_" cx="270.7" cy="227.6" r="7"> </circle>
	<circle id="XMLID_4241_" cx="272.8" cy="223.5" r="10.1"> </circle>
	<circle id="XMLID_4240_" cx="285.5" cy="220.3" r="9.8"> </circle>
	<circle id="XMLID_4239_" cx="294.1" cy="217.5" r="7.3"> </circle>
	<circle id="XMLID_4238_" cx="301.1" cy="205" r="9.7"> </circle>
	<circle id="XMLID_4237_" cx="309.4" cy="187.9" r="6.2"> </circle>
	<circle id="XMLID_4236_" cx="304.7" cy="175.4" r="10.9"> </circle>
	<circle id="XMLID_4235_" cx="306" cy="165.7" r="9.6"> </circle>
	<circle id="XMLID_4234_" cx="311.6" cy="149.1" r="4"> </circle>
	<circle id="XMLID_4233_" cx="303.8" cy="140.9" r="11.5"> </circle>
	<circle id="XMLID_4232_" cx="300.7" cy="136.3" r="7.9"> </circle>
	<circle id="XMLID_4231_" cx="296.1" cy="145.8" r="9.3"> </circle>
	<circle id="XMLID_4230_" cx="296.6" cy="169.1" r="9.7"> </circle>
	<circle id="XMLID_4229_" cx="297.7" cy="184.4" r="10.8"> </circle>
	<circle id="XMLID_4228_" cx="291" cy="205.4" r="10.5"> </circle>
	<circle id="XMLID_4227_" cx="272.6" cy="209.8" r="4.8"> </circle>
	<circle id="XMLID_4226_" cx="243.5" cy="196.3" r="10.1"> </circle>
	<circle id="XMLID_4225_" cx="240.3" cy="176.1" r="11.5"> </circle>
	<circle id="XMLID_4224_" cx="241.5" cy="153.3" r="10.3"> </circle>
	<circle id="XMLID_4223_" cx="245.3" cy="143.9" r="6.5"> </circle>
	<circle id="XMLID_4222_" cx="240" cy="135.9" r="8.5"> </circle>
	<circle id="XMLID_4221_" cx="236.5" cy="140.2" r="11.4"> </circle>
	<circle id="XMLID_4220_" cx="228.1" cy="143.5" r="5.1"> </circle>
	<circle id="XMLID_4219_" cx="229.6" cy="165.2" r="6.6"> </circle>
	<circle id="XMLID_4218_" cx="230.9" cy="187.8" r="7.9"> </circle>
	<circle id="XMLID_4217_" cx="238.1" cy="203.5" r="11"> </circle>
	<ellipse id="XMLID_4216_" cx="245.2" cy="216.7" rx="8.4" ry="8.4"> </ellipse>
	<circle id="XMLID_4215_" cx="252.8" cy="220.9" r="9.1"> </circle>
	<circle id="XMLID_4214_" cx="260.6" cy="228.6" r="4.1"> </circle>
	<circle id="XMLID_4213_" cx="271.1" cy="225.8" r="8.9"> </circle>
	<circle id="XMLID_4212_" cx="275.5" cy="223.1" r="9.9"> </circle>
	<circle id="XMLID_4211_" cx="288" cy="218.3" r="10"> </circle>
	<circle id="XMLID_4210_" cx="298.8" cy="210.6" r="8.5"> </circle>
	<circle id="XMLID_4209_" cx="303.7" cy="194.6" r="10.4"> </circle>
	<circle id="XMLID_4208_" cx="306.5" cy="186.5" r="9.2"> </circle>
	<circle id="XMLID_4207_" cx="307.4" cy="172.4" r="8.2"> </circle>
	<circle id="XMLID_4206_" cx="308.9" cy="151.3" r="6.7"> </circle>
	<circle id="XMLID_4205_" cx="306.2" cy="140.6" r="8.2"> </circle>
	<circle id="XMLID_4204_" cx="303.6" cy="133.7" r="4.8"> </circle>
	<circle id="XMLID_4203_" cx="292.6" cy="139.6" r="4.4"> </circle>
	<circle id="XMLID_4202_" cx="295" cy="147.5" r="8.1"> </circle>
	<circle id="XMLID_4201_" cx="292" cy="160.5" r="5.2"> </circle>
	<circle id="XMLID_4200_" cx="292.3" cy="168.6" r="5.4"> </circle>
	<circle id="XMLID_4199_" cx="292.9" cy="181.8" r="6.1"> </circle>
	<circle id="XMLID_4198_" cx="296.2" cy="199.2" r="11.9"> </circle>
	<ellipse id="XMLID_4197_" transform="matrix(0.1602 -0.9871 0.9871 0.1602 17.294 451.5267)" cx="274" cy="215.6" rx="10.8" ry="10.8"> </ellipse>
	<ellipse id="XMLID_4196_" cx="244.2" cy="196.4" rx="9.5" ry="9.5"> </ellipse>
	<circle id="XMLID_4195_" cx="246.1" cy="178.5" r="5.7"> </circle>
	<circle id="XMLID_4194_" cx="241.8" cy="166.4" r="10"> </circle>
	<circle id="XMLID_4193_" cx="241.1" cy="154.7" r="10.6"> </circle>
	<circle id="XMLID_4192_" cx="241.4" cy="142.3" r="9.7"> </circle>
	<circle id="XMLID_4191_" cx="238.6" cy="138.4" r="9.6"> </circle>
	<circle id="XMLID_4190_" cx="236.3" cy="136.3" r="7.7"> </circle>
	<circle id="XMLID_4189_" cx="228.8" cy="139.9" r="4.6"> </circle>
	<circle id="XMLID_4188_" cx="233.3" cy="148.6" r="10.3"> </circle>
	<circle id="XMLID_4187_" cx="229.1" cy="162.6" r="6.1"> </circle>
	<circle id="XMLID_4186_" cx="231.4" cy="176.6" r="8.4"> </circle>
	<circle id="XMLID_4185_" cx="236.3" cy="196.4" r="11.5"> </circle>
	<circle id="XMLID_4184_" cx="239" cy="204.7" r="11.1"> </circle>
	<circle id="XMLID_4183_" cx="238" cy="215.2" r="4.4"> </circle>
	<ellipse id="XMLID_4182_" transform="matrix(0.1602 -0.9871 0.9871 0.1602 -3.231 440.4024)" cx="257.2" cy="222.1" rx="10.6" ry="10.6"> </ellipse>
	<circle id="XMLID_4181_" cx="270.8" cy="227.2" r="7.5"> </circle>
	<circle id="XMLID_4180_" cx="278" cy="229.8" r="3"> </circle>
	<circle id="XMLID_4179_" cx="287" cy="227.2" r="3.2"> </circle>
	<circle id="XMLID_4178_" cx="290.1" cy="223.1" r="4.9"> </circle>
	<circle id="XMLID_4177_" cx="299.9" cy="218.2" r="3.4"> </circle>
	<circle id="XMLID_4176_" cx="303.8" cy="214" r="2.4"> </circle>
	<circle id="XMLID_4175_" cx="304.4" cy="209.4" r="4.5"> </circle>
	<circle id="XMLID_4174_" cx="308.4" cy="204.6" r="3.9"> </circle>
	<circle id="XMLID_4173_" cx="309.1" cy="192.8" r="5.5"> </circle>
	<circle id="XMLID_4172_" cx="313.2" cy="184.7" r="2.4"> </circle>
	<circle id="XMLID_4171_" cx="313.4" cy="173.3" r="2.2"> </circle>
	<circle id="XMLID_4170_" cx="313" cy="168.6" r="2.6"> </circle>
	<circle id="XMLID_4169_" cx="311.8" cy="163.6" r="3.8"> </circle>
	<circle id="XMLID_4168_" cx="311.2" cy="157.7" r="4.4"> </circle>
	<circle id="XMLID_4167_" cx="312" cy="151.1" r="3.6"> </circle>
	<circle id="XMLID_4166_" cx="310.4" cy="146.2" r="5.2"> </circle>
	<circle id="XMLID_4165_" cx="308.2" cy="137.2" r="5.1"> </circle>
	<circle id="XMLID_4164_" cx="303.2" cy="134.3" r="5.5"> </circle>
	<circle id="XMLID_4163_" cx="298.8" cy="132.4" r="3.5"> </circle>
	<circle id="XMLID_4162_" cx="293.3" cy="133.6" r="2.6"> </circle>
	<circle id="XMLID_4161_" cx="293.2" cy="139.3" r="4.8"> </circle>
	<circle id="XMLID_4160_" cx="290" cy="145.5" r="3.1"> </circle>
	<circle id="XMLID_4159_" cx="291.9" cy="157.1" r="5.1"> </circle>
	<circle id="XMLID_4158_" cx="292.3" cy="167.8" r="5.4"> </circle>
	<circle id="XMLID_4157_" cx="292.4" cy="172.8" r="5.6"> </circle>
	<circle id="XMLID_4156_" cx="291.6" cy="181" r="4.7"> </circle>
	<circle id="XMLID_4155_" cx="289.5" cy="192.7" r="3.7"> </circle>
	<circle id="XMLID_4154_" cx="286.9" cy="201.7" r="5"> </circle>
	<circle id="XMLID_4153_" cx="276.6" cy="208.7" r="4.7"> </circle>
	<circle id="XMLID_4152_" cx="268.8" cy="211.1" r="5.5"> </circle>
	<circle id="XMLID_4151_" cx="259.9" cy="207.9" r="4.6"> </circle>
	<ellipse id="XMLID_4150_" cx="250" cy="199.2" rx="4.8" ry="4.8"> </ellipse>
	<circle id="XMLID_4149_" cx="247.4" cy="190.8" r="4.9"> </circle>
	<circle id="XMLID_4148_" cx="248.6" cy="180.5" r="3.2"> </circle>
	<circle id="XMLID_4147_" cx="246" cy="173.9" r="5.8"> </circle>
	<circle id="XMLID_4146_" cx="246.9" cy="169.6" r="4.9"> </circle>
	<circle id="XMLID_4145_" cx="249" cy="161.6" r="2.7"> </circle>
	<circle id="XMLID_4144_" cx="247.3" cy="153.5" r="4.5"> </circle>
	<circle id="XMLID_4143_" cx="248.8" cy="148.5" r="3"> </circle>
	<circle id="XMLID_4142_" cx="246.8" cy="138.3" r="3.2"> </circle>
	<circle id="XMLID_4141_" cx="244.2" cy="132.7" r="2.1"> </circle>
	<circle id="XMLID_4140_" cx="240.4" cy="131.4" r="2.4"> </circle>
	<circle id="XMLID_4139_" cx="236.6" cy="131.7" r="3.6"> </circle>
	<circle id="XMLID_4138_" cx="231.3" cy="136.2" r="6"> </circle>
	<circle id="XMLID_4137_" cx="225.7" cy="143" r="2.9"> </circle>
	<circle id="XMLID_4136_" cx="227.3" cy="151.5" r="4.3"> </circle>
	<circle id="XMLID_4135_" cx="227.4" cy="160" r="4.4"> </circle>
	<circle id="XMLID_4134_" cx="228.5" cy="164.3" r="5.5"> </circle>
	<circle id="XMLID_4133_" cx="225.2" cy="176.1" r="2.2"> </circle>
	<circle id="XMLID_4132_" cx="228.2" cy="183.4" r="5.3"> </circle>
	<circle id="XMLID_4131_" cx="226.3" cy="191.9" r="2.5"> </circle>
	<circle id="XMLID_4130_" cx="230.6" cy="196" r="5.9"> </circle>
	<circle id="XMLID_4129_" cx="230.7" cy="203" r="4.7"> </circle>
	<circle id="XMLID_4128_" cx="230.6" cy="207.7" r="2.5"> </circle>
	<circle id="XMLID_4127_" cx="236.5" cy="217" r="2.2"> </circle>
	<circle id="XMLID_4126_" cx="244.1" cy="222.2" r="3.2"> </circle>
	<circle id="XMLID_4125_" cx="250.5" cy="227.8" r="2.1"> </circle>
	<circle id="XMLID_4124_" cx="255.3" cy="227.7" r="3.9"> </circle>
	<circle id="XMLID_4123_" cx="261.2" cy="228.4" r="5.2"> </circle>
	<ellipse id="XMLID_4122_" transform="matrix(0.1602 -0.9871 0.9871 0.1602 -2.3156 455.2784)" cx="266.4" cy="229" rx="5.7" ry="5.7"> </ellipse>
</g>

<g id="i">
	<circle id="XMLID_1185_" cx="181.7" cy="94.8" r="7.9"> </circle>
	<circle id="XMLID_1181_" cx="175.2" cy="96.9" r="10.5"> </circle>
	<circle id="XMLID_1177_" cx="172.2" cy="104.7" r="9.9"> </circle>
	<circle id="XMLID_1173_" cx="170.8" cy="107.6" r="5.5"> </circle>
	<circle id="XMLID_1169_" cx="183.5" cy="103" r="11.2"> </circle>
	<circle id="XMLID_1165_" cx="185.6" cy="98.9" r="8.3"> </circle>
	<circle id="XMLID_1161_" cx="181.1" cy="219.4" r="12.8"> </circle>
	<circle id="XMLID_1157_" cx="183.9" cy="215.1" r="8.4"> </circle>
	<circle id="XMLID_1153_" cx="183.4" cy="191.2" r="8.9"> </circle>
	<circle id="XMLID_1149_" cx="183.1" cy="181.8" r="9.2"> </circle>
	<circle id="XMLID_1145_" cx="180.4" cy="169" r="11.9"> </circle>
	<circle id="XMLID_1141_" cx="179.9" cy="147.6" r="12.4"> </circle>
	<circle id="XMLID_1137_" cx="179.8" cy="141.3" r="12"> </circle>
	<circle id="XMLID_1133_" cx="174.7" cy="137.3" r="8.5"> </circle>
	<circle id="XMLID_1129_" cx="171.5" cy="159.2" r="7.9"> </circle>
	<circle id="XMLID_1125_" cx="174" cy="170.2" r="10.5"> </circle>
	<circle id="XMLID_1121_" cx="173.4" cy="193.8" r="9.9"> </circle>
	<circle id="XMLID_1117_" cx="169.1" cy="203.4" r="5.5"> </circle>
	<circle id="XMLID_1113_" cx="177.4" cy="224.4" r="11.2"> </circle>
	<circle id="XMLID_1109_" cx="181.1" cy="226.9" r="8.3"> </circle>
	<circle id="XMLID_1105_" cx="186.7" cy="101.7" r="5.9"> </circle>
	<circle id="XMLID_1101_" cx="186.5" cy="93.6" r="3.1"> </circle>
	<circle id="XMLID_1097_" cx="177.9" cy="90.7" r="3.7"> </circle>
	<circle id="XMLID_1093_" cx="170.9" cy="95.9" r="5.8"> </circle>
	<circle id="XMLID_1089_" cx="167.5" cy="99.2" r="3.5"> </circle>
	<circle id="XMLID_1085_" cx="166.3" cy="103.4" r="2.9"> </circle>
	<circle id="XMLID_1081_" cx="171.4" cy="111.5" r="3.6"> </circle>
	<circle id="XMLID_1077_" cx="178.6" cy="113.3" r="3.1"> </circle>
	<circle id="XMLID_1073_" cx="183.5" cy="110.3" r="4.4"> </circle>
	<circle id="XMLID_1069_" cx="188.4" cy="107.2" r="2.6"> </circle>
	<circle id="XMLID_1065_" cx="191" cy="101.1" r="2.5"> </circle>
	<circle id="XMLID_1061_" cx="176.6" cy="229.6" r="5.1"> </circle>
	<circle id="XMLID_1057_" cx="183.6" cy="227" r="5.4"> </circle>
	<circle id="XMLID_1053_" cx="186.9" cy="218" r="5.8"> </circle>
	<circle id="XMLID_1049_" cx="189" cy="209" r="3.3"> </circle>
	<circle id="XMLID_1045_" cx="187.3" cy="201.7" r="5"> </circle>
	<circle id="XMLID_1041_" cx="189.6" cy="197.3" r="2.8"> </circle>
	<circle id="XMLID_1037_" cx="188" cy="190.4" r="4.3"> </circle>
	<circle id="XMLID_1033_" cx="189.1" cy="181.7" r="3.2"> </circle>
	<circle id="XMLID_1029_" cx="187.5" cy="174.2" r="4.8"> </circle>
	<circle id="XMLID_1025_" cx="188.5" cy="168.4" r="3.8"> </circle>
	<circle id="XMLID_1021_" cx="188.7" cy="161.5" r="3.6"> </circle>
	<circle id="XMLID_1017_" cx="189" cy="150.1" r="3.3"> </circle>
	<circle id="XMLID_1013_" cx="187.3" cy="140.6" r="4.1"> </circle>
	<circle id="XMLID_1009_" cx="184.3" cy="133.5" r="3.1"> </circle>
	<circle id="XMLID_1005_" cx="176.4" cy="131.4" r="4.2"> </circle>
	<circle id="XMLID_1001_" cx="174" cy="132" r="2.6"> </circle>
	<circle id="XMLID_997_" cx="168" cy="137.5" r="2.5"> </circle>
	<circle id="XMLID_993_" cx="168.6" cy="143.9" r="5.1"> </circle>
	<circle id="XMLID_989_" cx="169.4" cy="150.9" r="5.9"> </circle>
	<circle id="XMLID_985_" cx="166.6" cy="161" r="3.1"> </circle>
	<circle id="XMLID_981_" cx="167.2" cy="170" r="3.7"> </circle>
	<circle id="XMLID_977_" cx="169.3" cy="181.6" r="5.8"> </circle>
	<circle id="XMLID_973_" cx="167.1" cy="190.6" r="3.5"> </circle>
	<circle id="XMLID_969_" cx="166.4" cy="197.8" r="2.9"> </circle>
	<circle id="XMLID_965_" cx="167.1" cy="206.9" r="3.6"> </circle>
	<circle id="XMLID_961_" cx="166.6" cy="218" r="3.1"> </circle>
	<circle id="XMLID_957_" cx="170.1" cy="224.4" r="4.4"> </circle>
	<circle id="XMLID_953_" cx="172.8" cy="229.6" r="2.6"> </circle>
	<circle id="XMLID_949_" cx="178.9" cy="232.3" r="2.5"> </circle>
	<circle id="XMLID_945_" cx="179.2" cy="97.4" r="9.4"> </circle>
	<circle id="XMLID_941_" cx="174.1" cy="99.5" r="10.4"> </circle>
	<circle id="XMLID_937_" cx="166.7" cy="103.4" r="4.3"> </circle>
	<circle id="XMLID_933_" cx="181.6" cy="110.7" r="6"> </circle>
	<circle id="XMLID_929_" cx="182.3" cy="103.9" r="10.8"> </circle>
	<circle id="XMLID_925_" cx="186.8" cy="99.4" r="7"> </circle>
	<circle id="XMLID_921_" cx="177.4" cy="223.4" r="10.5"> </circle>
	<circle id="XMLID_917_" cx="186.3" cy="216.7" r="6"> </circle>
	<circle id="XMLID_913_" cx="181.3" cy="197.7" r="11"> </circle>
	<circle id="XMLID_909_" cx="181.7" cy="176.9" r="10.7"> </circle>
	<circle id="XMLID_905_" cx="180.9" cy="154" r="11.4"> </circle>
	<circle id="XMLID_901_" cx="178.2" cy="137.9" r="11.5"> </circle>
	<circle id="XMLID_897_" cx="180.9" cy="138.5" r="11.3"> </circle>
	<circle id="XMLID_893_" cx="175.7" cy="142.3" r="11.4"> </circle>
	<circle id="XMLID_889_" cx="168.1" cy="146.8" r="4.6"> </circle>
	<circle id="XMLID_885_" cx="172.9" cy="166.3" r="9.4"> </circle>
	<circle id="XMLID_881_" cx="173.9" cy="180" r="10.4"> </circle>
	<circle id="XMLID_877_" cx="167.8" cy="194.8" r="4.3"> </circle>
	<circle id="XMLID_873_" cx="169.5" cy="218" r="6"> </circle>
	<circle id="XMLID_869_" cx="176.4" cy="223.2" r="10.8"> </circle>
	<circle id="XMLID_865_" cx="180.6" cy="228" r="7"> </circle>
	<circle id="XMLID_861_" cx="176.8" cy="94.8" r="7.9"> </circle>
	<circle id="XMLID_857_" cx="173.8" cy="103.8" r="11"> </circle>
	<circle id="XMLID_853_" cx="173.9" cy="106.7" r="8.4"> </circle>
	<circle id="XMLID_849_" cx="178.7" cy="108" r="9.1"> </circle>
	<circle id="XMLID_845_" cx="185.8" cy="109.5" r="4.1"> </circle>
	<circle id="XMLID_841_" cx="185.1" cy="98.7" r="8.9"> </circle>
	<circle id="XMLID_837_" cx="181.9" cy="227.7" r="4.8"> </circle>
	<circle id="XMLID_833_" cx="182.2" cy="212.1" r="10.1"> </circle>
	<circle id="XMLID_829_" cx="180.8" cy="194.4" r="11.5"> </circle>
	<circle id="XMLID_825_" cx="182" cy="171.6" r="10.3"> </circle>
	<circle id="XMLID_821_" cx="185.8" cy="162.2" r="6.5"> </circle>
	<circle id="XMLID_817_" cx="183.8" cy="150.2" r="8.5"> </circle>
	<circle id="XMLID_813_" cx="178.2" cy="137.7" r="11.4"> </circle>
	<circle id="XMLID_809_" cx="174.9" cy="134.3" r="5.1"> </circle>
	<circle id="XMLID_805_" cx="170.2" cy="146.9" r="6.6"> </circle>
	<circle id="XMLID_801_" cx="171.4" cy="169.5" r="7.9"> </circle>
	<circle id="XMLID_797_" cx="174.5" cy="192.4" r="11"> </circle>
	<circle id="XMLID_793_" cx="171.9" cy="210.8" r="8.4"> </circle>
	<circle id="XMLID_789_" cx="172.6" cy="219.5" r="9.1"> </circle>
	<circle id="XMLID_785_" cx="170.5" cy="227" r="4.1"> </circle>
	<circle id="XMLID_781_" cx="181.3" cy="226.3" r="8.9"> </circle>
	<circle id="XMLID_777_" cx="181.6" cy="95.8" r="8.4"> </circle>
	<circle id="XMLID_773_" cx="174" cy="100.7" r="11.5"> </circle>
	<circle id="XMLID_769_" cx="174.3" cy="104.2" r="11.1"> </circle>
	<circle id="XMLID_765_" cx="169.3" cy="106.8" r="4.4"> </circle>
	<circle id="XMLID_761_" cx="178.6" cy="105.7" r="10.6"> </circle>
	<circle id="XMLID_757_" cx="186.4" cy="99.2" r="7.5"> </circle>
	<circle id="XMLID_753_" cx="179.8" cy="222.1" r="10.8"> </circle>
	<circle id="XMLID_749_" cx="182.9" cy="212.5" r="9.5"> </circle>
	<circle id="XMLID_745_" cx="186.6" cy="196.8" r="5.7"> </circle>
	<circle id="XMLID_743_" cx="182.3" cy="184.7" r="10"> </circle>
	<circle id="XMLID_741_" cx="181.7" cy="173" r="10.6"> </circle>
	<circle id="XMLID_739_" cx="182.6" cy="156.6" r="9.7"> </circle>
	<circle id="XMLID_737_" cx="182.7" cy="143.5" r="9.6"> </circle>
	<circle id="XMLID_735_" cx="182.2" cy="137.4" r="7.7"> </circle>
	<circle id="XMLID_733_" cx="176.5" cy="131.9" r="4.6"> </circle>
	<circle id="XMLID_731_" cx="174.2" cy="138.1" r="10.3"> </circle>
	<circle id="XMLID_729_" cx="169.6" cy="144.2" r="6.1"> </circle>
	<circle id="XMLID_727_" cx="171.9" cy="158.3" r="8.4"> </circle>
	<circle id="XMLID_725_" cx="175" cy="180.6" r="11.5"> </circle>
	<circle id="XMLID_723_" cx="174.6" cy="194" r="11.1"> </circle>
	<circle id="XMLID_721_" cx="167.9" cy="202.1" r="4.4"> </circle>
	<circle id="XMLID_719_" cx="174.7" cy="219.4" r="10.6"> </circle>
	<circle id="XMLID_717_" cx="180.8" cy="227.6" r="7.5"> </circle>
	<circle id="XMLID_714_" cx="187.5" cy="93.9" r="2.2"> </circle>
	<circle id="XMLID_710_" cx="181.9" cy="94" r="5.3"> </circle>
	<circle id="XMLID_706_" cx="176.5" cy="90" r="2.5"> </circle>
	<circle id="XMLID_702_" cx="173.3" cy="95" r="5.9"> </circle>
	<circle id="XMLID_698_" cx="170.4" cy="95.3" r="4.7"> </circle>
	<circle id="XMLID_694_" cx="166.1" cy="99.8" r="2.5"> </circle>
	<circle id="XMLID_690_" cx="167.5" cy="108.3" r="2.2"> </circle>
	<circle id="XMLID_688_" cx="174" cy="112.3" r="3.2"> </circle>
	<circle id="XMLID_686_" cx="179.7" cy="114.4" r="2.1"> </circle>
	<circle id="XMLID_684_" cx="184.2" cy="110.6" r="3.9"> </circle>
	<circle id="XMLID_682_" cx="184.5" cy="109.6" r="5.2"> </circle>
	<circle id="XMLID_680_" cx="188" cy="99.9" r="5.7"> </circle>
	<circle id="XMLID_678_" cx="178.1" cy="229.4" r="4.7"> </circle>
	<circle id="XMLID_676_" cx="184" cy="226.1" r="5.5"> </circle>
	<circle id="XMLID_674_" cx="186.1" cy="223.1" r="4.6"> </circle>
	<circle id="XMLID_672_" cx="187.5" cy="215.4" r="4.8"> </circle>
	<circle id="XMLID_670_" cx="187.4" cy="207.9" r="4.9"> </circle>
	<circle id="XMLID_668_" cx="189.2" cy="198.8" r="3.2"> </circle>
	<circle id="XMLID_666_" cx="186.5" cy="192.2" r="5.8"> </circle>
	<circle id="XMLID_664_" cx="187.5" cy="187.9" r="4.9"> </circle>
	<circle id="XMLID_662_" cx="189.6" cy="179.9" r="2.7"> </circle>
	<circle id="XMLID_660_" cx="187.8" cy="171.9" r="4.5"> </circle>
	<circle id="XMLID_658_" cx="189.3" cy="166.8" r="3"> </circle>
	<circle id="XMLID_656_" cx="189.1" cy="155" r="3.2"> </circle>
	<circle id="XMLID_654_" cx="190.2" cy="146.5" r="2.1"> </circle>
	<circle id="XMLID_652_" cx="189.9" cy="142.4" r="2.4"> </circle>
	<circle id="XMLID_650_" cx="186.7" cy="137.7" r="3.6"> </circle>
	<circle id="XMLID_648_" cx="182.2" cy="135.8" r="6"> </circle>
	<circle id="XMLID_646_" cx="175.6" cy="131.7" r="2.9"> </circle>
	<circle id="XMLID_644_" cx="170.8" cy="135.5" r="4.3"> </circle>
	<circle id="XMLID_642_" cx="167.7" cy="143.4" r="4.4"> </circle>
	<circle id="XMLID_640_" cx="169" cy="146" r="5.5"> </circle>
	<circle id="XMLID_638_" cx="165.7" cy="157.8" r="2.2"> </circle>
	<circle id="XMLID_636_" cx="168.8" cy="165" r="5.3"> </circle>
	<circle id="XMLID_634_" cx="166" cy="174.2" r="2.5"> </circle>
	<circle id="XMLID_632_" cx="169.4" cy="179" r="5.9"> </circle>
	<circle id="XMLID_630_" cx="168.2" cy="185.9" r="4.7"> </circle>
	<circle id="XMLID_628_" cx="166" cy="191.7" r="2.5"> </circle>
	<circle id="XMLID_626_" cx="165.7" cy="202.7" r="2.2"> </circle>
	<circle id="XMLID_624_" cx="166.7" cy="213" r="3.2"> </circle>
	<circle id="XMLID_622_" cx="165.9" cy="220.5" r="2.1"> </circle>
	<circle id="XMLID_620_" cx="169.8" cy="225.1" r="3.9"> </circle>
	<circle id="XMLID_618_" cx="170.4" cy="225.8" r="5.2"> </circle>
	<circle id="XMLID_616_" cx="180.1" cy="229.3" r="5.7"> </circle>
</g>

<g id="y">
	<circle id="XMLID_3827_" cx="82.7" cy="268.1" r="4.9"> </circle>
	<circle id="XMLID_3826_" cx="87.6" cy="248.1" r="9.3"> </circle>
	<circle id="XMLID_3825_" cx="98.6" cy="231.8" r="5.3"> </circle>
	<circle id="XMLID_3824_" cx="100.7" cy="206.1" r="12.9"> </circle>
	<circle id="XMLID_3823_" cx="110.4" cy="199.3" r="6.4"> </circle>
	<circle id="XMLID_3822_" cx="112.8" cy="176.3" r="12.8"> </circle>
	<circle id="XMLID_3821_" cx="123.7" cy="160.9" r="8.4"> </circle>
	<circle id="XMLID_3820_" cx="129.3" cy="141.5" r="8.9"> </circle>
	<circle id="XMLID_3819_" cx="128.6" cy="139.9" r="9.2"> </circle>
	<circle id="XMLID_3818_" cx="124.3" cy="140.5" r="11.9"> </circle>
	<circle id="XMLID_3817_" cx="121" cy="146.2" r="12.4"> </circle>
	<circle id="XMLID_3816_" cx="112.9" cy="165.3" r="12"> </circle>
	<circle id="XMLID_3815_" cx="102" cy="183" r="8.5"> </circle>
	<circle id="XMLID_3814_" cx="91.9" cy="206.7" r="7.9"> </circle>
	<circle id="XMLID_3813_" cx="90.1" cy="217.8" r="10.5"> </circle>
	<circle id="XMLID_3812_" cx="80.8" cy="239.5" r="9.9"> </circle>
	<circle id="XMLID_3811_" cx="73.1" cy="246.8" r="5.5"> </circle>
	<circle id="XMLID_3810_" cx="74.4" cy="260.8" r="11.2"> </circle>
	<circle id="XMLID_3809_" cx="78.7" cy="266.8" r="8.3"> </circle>
	<circle id="XMLID_3808_" cx="83.1" cy="223.7" r="6.4"> </circle>
	<circle id="XMLID_3807_" cx="90.9" cy="223.5" r="12.8"> </circle>
	<circle id="XMLID_3806_" cx="95.9" cy="219.4" r="8.4"> </circle>
	<circle id="XMLID_3805_" cx="88.4" cy="200.5" r="8.9"> </circle>
	<circle id="XMLID_3804_" cx="84.5" cy="191.8" r="9.2"> </circle>
	<circle id="XMLID_3803_" cx="77.3" cy="180.9" r="11.9"> </circle>
	<circle id="XMLID_3802_" cx="68.9" cy="161.3" r="12.4"> </circle>
	<circle id="XMLID_3801_" cx="61.5" cy="141.9" r="12"> </circle>
	<circle id="XMLID_3800_" cx="55.4" cy="138" r="8.5"> </circle>
	<circle id="XMLID_3799_" cx="54.1" cy="147.2" r="7.9"> </circle>
	<circle id="XMLID_3798_" cx="60.6" cy="156.5" r="10.5"> </circle>
	<circle id="XMLID_3797_" cx="68.9" cy="178.7" r="9.9"> </circle>
	<circle id="XMLID_3796_" cx="68.4" cy="189.2" r="5.5"> </circle>
	<circle id="XMLID_3795_" cx="83.3" cy="211.2" r="11.2"> </circle>
	<circle id="XMLID_3794_" cx="85.4" cy="224.1" r="8.3"> </circle>
	<circle id="XMLID_3793_" cx="79.1" cy="269.1" r="5"> </circle>
	<circle id="XMLID_3792_" cx="84" cy="270.5" r="2.1"> </circle>
	<circle id="XMLID_3791_" cx="88.8" cy="264.2" r="2.2"> </circle>
	<circle id="XMLID_3790_" cx="87.7" cy="257.4" r="5.8"> </circle>
	<circle id="XMLID_3789_" cx="90" cy="251.8" r="5.7"> </circle>
	<circle id="XMLID_3788_" cx="92.7" cy="247.8" r="4.8"> </circle>
	<circle id="XMLID_3787_" cx="95.3" cy="241.2" r="4.7"> </circle>
	<circle id="XMLID_3786_" cx="99.5" cy="232.1" r="4.3"> </circle>
	<circle id="XMLID_3785_" cx="104.3" cy="223.2" r="3.1"> </circle>
	<circle id="XMLID_3784_" cx="108.2" cy="216" r="2.2"> </circle>
	<circle id="XMLID_3783_" cx="109.6" cy="204.3" r="5.3"> </circle>
	<circle id="XMLID_3782_" cx="112.3" cy="197" r="5.5"> </circle>
	<circle id="XMLID_3781_" cx="117" cy="186.6" r="5.1"> </circle>
	<circle id="XMLID_3780_" cx="121" cy="175.7" r="5.4"> </circle>
	<circle id="XMLID_3779_" cx="124.2" cy="166.6" r="5.8"> </circle>
	<circle id="XMLID_3778_" cx="130.7" cy="157.1" r="3.3"> </circle>
	<circle id="XMLID_3777_" cx="131.9" cy="149.8" r="5"> </circle>
	<circle id="XMLID_3776_" cx="135.6" cy="146.5" r="2.8"> </circle>
	<circle id="XMLID_3775_" cx="133.9" cy="140.7" r="4.3"> </circle>
	<circle id="XMLID_3774_" cx="132.8" cy="135.6" r="3.2"> </circle>
	<circle id="XMLID_3773_" cx="129.5" cy="133.4" r="4.8"> </circle>
	<circle id="XMLID_3772_" cx="123.7" cy="132.5" r="3.8"> </circle>
	<circle id="XMLID_3771_" cx="120.1" cy="133.1" r="3.6"> </circle>
	<circle id="XMLID_3770_" cx="113.6" cy="140.5" r="3.3"> </circle>
	<circle id="XMLID_3769_" cx="110.1" cy="151.3" r="4.1"> </circle>
	<circle id="XMLID_3768_" cx="105.1" cy="160.8" r="3.1"> </circle>
	<circle id="XMLID_3767_" cx="103.1" cy="168.8" r="4.2"> </circle>
	<circle id="XMLID_3766_" cx="99.6" cy="173.2" r="2.6"> </circle>
	<circle id="XMLID_3765_" cx="95.4" cy="183.2" r="2.5"> </circle>
	<circle id="XMLID_3764_" cx="94.9" cy="191.4" r="5.1"> </circle>
	<circle id="XMLID_3763_" cx="93.1" cy="198.2" r="5.9"> </circle>
	<circle id="XMLID_3762_" cx="86.7" cy="206.6" r="3.1"> </circle>
	<circle id="XMLID_3761_" cx="83.9" cy="215.1" r="3.7"> </circle>
	<circle id="XMLID_3760_" cx="81.5" cy="226.7" r="5.8"> </circle>
	<circle id="XMLID_3759_" cx="76.1" cy="234.1" r="3.5"> </circle>
	<circle id="XMLID_3758_" cx="72.8" cy="240.6" r="2.9"> </circle>
	<circle id="XMLID_3757_" cx="70" cy="249.3" r="3.6"> </circle>
	<circle id="XMLID_3756_" cx="66.9" cy="258.5" r="3.1"> </circle>
	<circle id="XMLID_3755_" cx="67.6" cy="263.6" r="4.4"> </circle>
	<circle id="XMLID_3754_" cx="72.7" cy="271.2" r="2.6"> </circle>
	<circle id="XMLID_3753_" cx="77.6" cy="272.5" r="2.5"> </circle>
	<circle id="XMLID_3752_" cx="84.2" cy="226.6" r="5.5"> </circle>
	<circle id="XMLID_3751_" cx="90.7" cy="230.9" r="5.1"> </circle>
	<circle id="XMLID_3750_" cx="95.7" cy="228.4" r="5.4"> </circle>
	<circle id="XMLID_3749_" cx="98.5" cy="224.6" r="5.8"> </circle>
	<circle id="XMLID_3748_" cx="100.1" cy="214.9" r="3.3"> </circle>
	<circle id="XMLID_3747_" cx="95.9" cy="208.8" r="5"> </circle>
	<circle id="XMLID_3746_" cx="96.3" cy="203.8" r="2.8"> </circle>
	<circle id="XMLID_3745_" cx="92.4" cy="198" r="4.3"> </circle>
	<circle id="XMLID_3744_" cx="90.1" cy="189.5" r="3.2"> </circle>
	<circle id="XMLID_3743_" cx="85.8" cy="183.1" r="4.8"> </circle>
	<circle id="XMLID_3742_" cx="84.6" cy="177.4" r="3.8"> </circle>
	<circle id="XMLID_3741_" cx="82.2" cy="170.9" r="3.6"> </circle>
	<circle id="XMLID_3740_" cx="78.2" cy="160.2" r="3.3"> </circle>
	<circle id="XMLID_3739_" cx="73.3" cy="150" r="4.1"> </circle>
	<circle id="XMLID_3738_" cx="70.3" cy="139.7" r="3.1"> </circle>
	<circle id="XMLID_3737_" cx="64.9" cy="135.4" r="4.2"> </circle>
	<circle id="XMLID_3736_" cx="63.7" cy="132.1" r="2.6"> </circle>
	<circle id="XMLID_3735_" cx="54.9" cy="132" r="2.5"> </circle>
	<circle id="XMLID_3734_" cx="51.1" cy="139.3" r="5.1"> </circle>
	<circle id="XMLID_3733_" cx="52" cy="142.1" r="5.9"> </circle>
	<circle id="XMLID_3732_" cx="50.3" cy="150.8" r="3.1"> </circle>
	<circle id="XMLID_3731_" cx="54.2" cy="158.9" r="3.7"> </circle>
	<circle id="XMLID_3730_" cx="60.5" cy="168.8" r="5.8"> </circle>
	<circle id="XMLID_3729_" cx="61.8" cy="178" r="3.5"> </circle>
	<circle id="XMLID_3728_" cx="63.8" cy="185" r="2.9"> </circle>
	<circle id="XMLID_3727_" cx="67.9" cy="193.1" r="3.6"> </circle>
	<circle id="XMLID_3726_" cx="71.6" cy="203.7" r="3.1"> </circle>
	<circle id="XMLID_3725_" cx="76" cy="211.1" r="4.4"> </circle>
	<circle id="XMLID_3724_" cx="77.6" cy="220.1" r="2.6"> </circle>
	<circle id="XMLID_3723_" cx="80" cy="226.3" r="2.5"> </circle>
	<circle id="XMLID_3722_" cx="79.6" cy="266.6" r="7.3"> </circle>
	<circle id="XMLID_3721_" cx="87.7" cy="261.1" r="4.4"> </circle>
	<circle id="XMLID_3720_" cx="91.3" cy="250.1" r="5.2"> </circle>
	<circle id="XMLID_3719_" cx="94.4" cy="225.8" r="11.4"> </circle>
	<circle id="XMLID_3718_" cx="99.1" cy="219.1" r="9.5"> </circle>
	<circle id="XMLID_3717_" cx="100.8" cy="209.2" r="11.7"> </circle>
	<circle id="XMLID_3716_" cx="110" cy="197" r="7.7"> </circle>
	<circle id="XMLID_3715_" cx="113.1" cy="181.8" r="10.5"> </circle>
	<circle id="XMLID_3714_" cx="125.4" cy="163.3" r="6"> </circle>
	<circle id="XMLID_3713_" cx="127.8" cy="143.7" r="11"> </circle>
	<circle id="XMLID_3712_" cx="124.1" cy="137.5" r="10.7"> </circle>
	<circle id="XMLID_3711_" cx="120.4" cy="143.8" r="11.4"> </circle>
	<circle id="XMLID_3710_" cx="114.7" cy="159.6" r="11.5"> </circle>
	<circle id="XMLID_3709_" cx="109.2" cy="172.8" r="11.3"> </circle>
	<circle id="XMLID_3708_" cx="103.1" cy="188" r="11.4"> </circle>
	<circle id="XMLID_3707_" cx="93.4" cy="193.9" r="4.6"> </circle>
	<circle id="XMLID_3706_" cx="90.6" cy="213.8" r="9.4"> </circle>
	<circle id="XMLID_3705_" cx="86.4" cy="226.9" r="10.4"> </circle>
	<circle id="XMLID_3704_" cx="75.2" cy="238.3" r="4.3"> </circle>
	<circle id="XMLID_3703_" cx="69.8" cy="258.4" r="6"> </circle>
	<circle id="XMLID_3702_" cx="73" cy="260" r="10.8"> </circle>
	<circle id="XMLID_3701_" cx="78.5" cy="268" r="7"> </circle>
	<circle id="XMLID_3700_" cx="85.4" cy="224.5" r="7.7"> </circle>
	<circle id="XMLID_3699_" cx="90.2" cy="225.8" r="10.5"> </circle>
	<circle id="XMLID_3698_" cx="98.3" cy="221" r="6"> </circle>
	<circle id="XMLID_3697_" cx="88.8" cy="207.2" r="11"> </circle>
	<circle id="XMLID_3696_" cx="81.4" cy="187.8" r="10.7"> </circle>
	<circle id="XMLID_3695_" cx="72.2" cy="166.8" r="11.4"> </circle>
	<circle id="XMLID_3694_" cx="64.2" cy="147.2" r="11.5"> </circle>
	<circle id="XMLID_3693_" cx="58.7" cy="139.4" r="11.3"> </circle>
	<circle id="XMLID_3692_" cx="60" cy="139.5" r="11.4"> </circle>
	<circle id="XMLID_3691_" cx="50.3" cy="139.8" r="4.6"> </circle>
	<circle id="XMLID_3690_" cx="58.1" cy="153.3" r="9.4"> </circle>
	<circle id="XMLID_3689_" cx="64.2" cy="165.7" r="10.4"> </circle>
	<circle id="XMLID_3688_" cx="64" cy="181.6" r="4.3"> </circle>
	<circle id="XMLID_3687_" cx="74.2" cy="202.5" r="6"> </circle>
	<circle id="XMLID_3686_" cx="82.4" cy="209.9" r="10.8"> </circle>
	<circle id="XMLID_3685_" cx="84.2" cy="224.6" r="7"> </circle>
	<circle id="XMLID_3684_" cx="76.4" cy="263.1" r="11.5"> </circle>
	<circle id="XMLID_3683_" cx="84" cy="261.3" r="7.9"> </circle>
	<circle id="XMLID_3682_" cx="90" cy="242.4" r="9.3"> </circle>
	<circle id="XMLID_3681_" cx="98.2" cy="220.7" r="9.7"> </circle>
	<circle id="XMLID_3680_" cx="102.9" cy="206" r="10.8"> </circle>
	<circle id="XMLID_3679_" cx="108.5" cy="193" r="10.5"> </circle>
	<circle id="XMLID_3678_" cx="119.3" cy="181.5" r="4.8"> </circle>
	<circle id="XMLID_3677_" cx="123.3" cy="157.5" r="10.1"> </circle>
	<circle id="XMLID_3676_" cx="126.8" cy="144.8" r="11.5"> </circle>
	<circle id="XMLID_3675_" cx="127" cy="138.9" r="10.3"> </circle>
	<circle id="XMLID_3674_" cx="122.7" cy="134.5" r="6.5"> </circle>
	<circle id="XMLID_3673_" cx="118.4" cy="142.4" r="8.5"> </circle>
	<circle id="XMLID_3672_" cx="114.5" cy="159.7" r="11.4"> </circle>
	<circle id="XMLID_3671_" cx="101.9" cy="174.1" r="5.1"> </circle>
	<circle id="XMLID_3670_" cx="95.3" cy="194.7" r="6.6"> </circle>
	<circle id="XMLID_3669_" cx="88" cy="216.2" r="7.9"> </circle>
	<circle id="XMLID_3668_" cx="82.3" cy="238.6" r="11"> </circle>
	<circle id="XMLID_3667_" cx="73" cy="254.7" r="8.4"> </circle>
	<circle id="XMLID_3666_" cx="73" cy="259.9" r="9.1"> </circle>
	<circle id="XMLID_3665_" cx="71.6" cy="268" r="4.1"> </circle>
	<circle id="XMLID_3664_" cx="78.8" cy="266.2" r="8.9"> </circle>
	<circle id="XMLID_3663_" cx="89.6" cy="225.2" r="10.5"> </circle>
	<circle id="XMLID_3662_" cx="93.8" cy="230.8" r="4.8"> </circle>
	<circle id="XMLID_3661_" cx="94.3" cy="216.5" r="10.1"> </circle>
	<circle id="XMLID_3660_" cx="87.2" cy="204.4" r="11.5"> </circle>
	<circle id="XMLID_3659_" cx="79.8" cy="182.8" r="10.3"> </circle>
	<circle id="XMLID_3658_" cx="79.8" cy="172.7" r="6.5"> </circle>
	<circle id="XMLID_3657_" cx="73.4" cy="162.2" r="8.5"> </circle>
	<circle id="XMLID_3656_" cx="64.3" cy="147" r="11.4"> </circle>
	<circle id="XMLID_3655_" cx="63.6" cy="134.6" r="5.1"> </circle>
	<circle id="XMLID_3654_" cx="52.2" cy="140.6" r="6.6"> </circle>
	<circle id="XMLID_3653_" cx="57.9" cy="156.8" r="7.9"> </circle>
	<circle id="XMLID_3652_" cx="69.4" cy="176.9" r="11"> </circle>
	<circle id="XMLID_3651_" cx="73.8" cy="195" r="8.4"> </circle>
	<circle id="XMLID_3650_" cx="77.7" cy="202.8" r="9.1"> </circle>
	<circle id="XMLID_3649_" cx="77.9" cy="216.7" r="4.1"> </circle>
	<circle id="XMLID_3648_" cx="85.9" cy="223.9" r="8.9"> </circle>
	<circle id="XMLID_3647_" cx="83.4" cy="268" r="4.8"> </circle>
	<circle id="XMLID_3646_" cx="91.4" cy="251.9" r="4.4"> </circle>
	<circle id="XMLID_3645_" cx="91.6" cy="241.3" r="8.1"> </circle>
	<circle id="XMLID_3644_" cx="99.3" cy="230.3" r="5.2"> </circle>
	<circle id="XMLID_3643_" cx="102" cy="222.7" r="5.4"> </circle>
	<circle id="XMLID_3642_" cx="106.4" cy="210.3" r="6.1"> </circle>
	<circle id="XMLID_3641_" cx="106.4" cy="194.6" r="11.9"> </circle>
	<circle id="XMLID_3640_" cx="113.9" cy="179.1" r="10.8"> </circle>
	<circle id="XMLID_3639_" cx="123.7" cy="158" r="9.5"> </circle>
	<circle id="XMLID_3638_" cx="132.7" cy="146" r="5.7"> </circle>
	<circle id="XMLID_3637_" cx="130.2" cy="142.5" r="10"> </circle>
	<circle id="XMLID_3636_" cx="128.4" cy="139.2" r="10.6"> </circle>
	<circle id="XMLID_3635_" cx="121" cy="140.7" r="9.7"> </circle>
	<circle id="XMLID_3634_" cx="116.9" cy="148.9" r="9.6"> </circle>
	<circle id="XMLID_3633_" cx="111.5" cy="157.1" r="7.7"> </circle>
	<circle id="XMLID_3632_" cx="103.6" cy="168.6" r="4.6"> </circle>
	<circle id="XMLID_3631_" cx="104.9" cy="180.8" r="10.3"> </circle>
	<circle id="XMLID_3630_" cx="95.8" cy="192.1" r="6.1"> </circle>
	<circle id="XMLID_3629_" cx="92.6" cy="206" r="8.4"> </circle>
	<circle id="XMLID_3628_" cx="87.1" cy="227.9" r="11.5"> </circle>
	<circle id="XMLID_3627_" cx="81.8" cy="240.1" r="11.1"> </circle>
	<circle id="XMLID_3626_" cx="72.6" cy="245.1" r="4.4"> </circle>
	<circle id="XMLID_3625_" cx="74.5" cy="264.2" r="10.6"> </circle>
	<circle id="XMLID_3624_" cx="78.6" cy="267.6" r="7.5"> </circle>
	<circle id="XMLID_3623_" cx="89.2" cy="222.5" r="11.9"> </circle>
	<circle id="XMLID_3622_" cx="92.8" cy="225" r="10.8"> </circle>
	<circle id="XMLID_3621_" cx="94.9" cy="216.8" r="9.5"> </circle>
	<circle id="XMLID_3620_" cx="93.4" cy="204.5" r="5.7"> </circle>
	<circle id="XMLID_3619_" cx="84.9" cy="194.8" r="10"> </circle>
	<circle id="XMLID_3618_" cx="80" cy="184.2" r="10.6"> </circle>
	<circle id="XMLID_3617_" cx="74.8" cy="168.7" r="9.7"> </circle>
	<circle id="XMLID_3616_" cx="70" cy="156.5" r="9.6"> </circle>
	<circle id="XMLID_3615_" cx="68.2" cy="146.8" r="7.7"> </circle>
	<circle id="XMLID_3614_" cx="64.8" cy="136" r="4.6"> </circle>
	<circle id="XMLID_3613_" cx="58.5" cy="139.8" r="10.3"> </circle>
	<circle id="XMLID_3612_" cx="51.6" cy="140.3" r="6.1"> </circle>
	<circle id="XMLID_3611_" cx="54.3" cy="146.3" r="8.4"> </circle>
	<circle id="XMLID_3610_" cx="65.4" cy="165.8" r="11.5"> </circle>
	<circle id="XMLID_3609_" cx="70" cy="178.3" r="11.1"> </circle>
	<circle id="XMLID_3608_" cx="66.8" cy="188.4" r="4.4"> </circle>
	<circle id="XMLID_3607_" cx="80.7" cy="206.2" r="10.6"> </circle>
	<circle id="XMLID_3606_" cx="84.6" cy="224.5" r="7.5"> </circle>
	<circle id="XMLID_3605_" cx="83.3" cy="267.3" r="5.5"> </circle>
	<circle id="XMLID_3604_" cx="87.6" cy="263.9" r="3.5"> </circle>
	<circle id="XMLID_3603_" cx="90.1" cy="260" r="2.6"> </circle>
	<circle id="XMLID_3602_" cx="90.8" cy="252.2" r="4.8"> </circle>
	<circle id="XMLID_3601_" cx="95.5" cy="245" r="3.1"> </circle>
	<circle id="XMLID_3600_" cx="98" cy="233.5" r="5.1"> </circle>
	<circle id="XMLID_3599_" cx="101.7" cy="223.5" r="5.4"> </circle>
	<circle id="XMLID_3598_" cx="103.5" cy="218.8" r="5.6"> </circle>
	<circle id="XMLID_3597_" cx="107.3" cy="211.5" r="4.7"> </circle>
	<circle id="XMLID_3596_" cx="112.3" cy="201.8" r="3.7"> </circle>
	<circle id="XMLID_3595_" cx="113.7" cy="194.7" r="5"> </circle>
	<circle id="XMLID_3594_" cx="117.8" cy="185.4" r="4.7"> </circle>
	<circle id="XMLID_3593_" cx="119.6" cy="178.8" r="5.5"> </circle>
	<circle id="XMLID_3592_" cx="123.5" cy="171.7" r="4.6"> </circle>
	<circle id="XMLID_3591_" cx="127" cy="162.6" r="4.8"> </circle>
	<circle id="XMLID_3590_" cx="129.7" cy="155.5" r="4.9"> </circle>
	<circle id="XMLID_3589_" cx="134.7" cy="147.8" r="3.2"> </circle>
	<circle id="XMLID_3588_" cx="132.4" cy="142.5" r="5.8"> </circle>
	<circle id="XMLID_3587_" cx="133.3" cy="138.2" r="4.9"> </circle>
	<circle id="XMLID_3586_" cx="131.9" cy="134" r="2.7"> </circle>
	<circle id="XMLID_3585_" cx="127.2" cy="133.1" r="4.5"> </circle>
	<circle id="XMLID_3584_" cx="122.1" cy="131.7" r="3"> </circle>
	<circle id="XMLID_3583_" cx="115.2" cy="137.4" r="3.2"> </circle>
	<circle id="XMLID_3582_" cx="111.1" cy="143.3" r="2.1"> </circle>
	<circle id="XMLID_3581_" cx="109.8" cy="147.2" r="2.4"> </circle>
	<circle id="XMLID_3580_" cx="108.5" cy="153.8" r="3.6"> </circle>
	<circle id="XMLID_3579_" cx="107.4" cy="162.9" r="6"> </circle>
	<circle id="XMLID_3578_" cx="100.5" cy="171.8" r="2.9"> </circle>
	<circle id="XMLID_3577_" cx="98.2" cy="181.2" r="4.3"> </circle>
	<circle id="XMLID_3576_" cx="95.2" cy="189.1" r="4.4"> </circle>
	<circle id="XMLID_3575_" cx="94.6" cy="193.5" r="5.5"> </circle>
	<circle id="XMLID_3574_" cx="87.1" cy="203.2" r="2.2"> </circle>
	<circle id="XMLID_3573_" cx="87.2" cy="211.1" r="5.3"> </circle>
	<circle id="XMLID_3572_" cx="81.2" cy="218.5" r="2.5"> </circle>
	<circle id="XMLID_3571_" cx="82.6" cy="224.3" r="5.9"> </circle>
	<circle id="XMLID_3570_" cx="78.9" cy="230.2" r="4.7"> </circle>
	<circle id="XMLID_3569_" cx="74.7" cy="234.8" r="2.5"> </circle>
	<circle id="XMLID_3568_" cx="70.3" cy="244.9" r="2.2"> </circle>
	<circle id="XMLID_3567_" cx="67.3" cy="254.8" r="3.2"> </circle>
	<circle id="XMLID_3566_" cx="65.9" cy="261.9" r="2.1"> </circle>
	<circle id="XMLID_3565_" cx="67.6" cy="264.4" r="3.9"> </circle>
	<circle id="XMLID_3564_" cx="72" cy="266.8" r="5.2"> </circle>
	<circle id="XMLID_3563_" cx="78.2" cy="269.4" r="5.7"> </circle>
	<circle id="XMLID_3562_" cx="85.5" cy="228.9" r="5"> </circle>
	<circle id="XMLID_3561_" cx="92" cy="231.6" r="4.7"> </circle>
	<circle id="XMLID_3560_" cx="93.1" cy="230.7" r="5.5"> </circle>
	<circle id="XMLID_3559_" cx="99.5" cy="225.8" r="4.6"> </circle>
	<circle id="XMLID_3558_" cx="99.6" cy="219.8" r="4.8"> </circle>
	<circle id="XMLID_3557_" cx="98.3" cy="214.4" r="4.9"> </circle>
	<circle id="XMLID_3556_" cx="96.5" cy="205.4" r="3.2"> </circle>
	<circle id="XMLID_3555_" cx="91.6" cy="200.3" r="5.8"> </circle>
	<circle id="XMLID_3554_" cx="90.9" cy="195.9" r="4.9"> </circle>
	<circle id="XMLID_3553_" cx="89.9" cy="187.7" r="2.7"> </circle>
	<circle id="XMLID_3552_" cx="85.2" cy="180.9" r="4.5"> </circle>
	<circle id="XMLID_3551_" cx="84.8" cy="175.6" r="3"> </circle>
	<circle id="XMLID_3550_" cx="80.2" cy="164.7" r="3.2"> </circle>
	<circle id="XMLID_3549_" cx="78.1" cy="156.5" r="2.1"> </circle>
	<circle id="XMLID_3548_" cx="76.3" cy="152.8" r="2.4"> </circle>
	<circle id="XMLID_3547_" cx="72.7" cy="147.1" r="3.6"> </circle>
	<circle id="XMLID_3546_" cx="67.2" cy="139.8" r="6"> </circle>
	<circle id="XMLID_3545_" cx="63.1" cy="131.9" r="2.9"> </circle>
	<circle id="XMLID_3544_" cx="55.7" cy="133.8" r="4.3"> </circle>
	<circle id="XMLID_3543_" cx="52.3" cy="137.3" r="4.4"> </circle>
	<circle id="XMLID_3542_" cx="49.9" cy="141.1" r="5.5"> </circle>
	<circle id="XMLID_3541_" cx="48.3" cy="148.1" r="2.2"> </circle>
	<circle id="XMLID_3540_" cx="53.8" cy="153.7" r="5.3"> </circle>
	<circle id="XMLID_3539_" cx="54.7" cy="163.2" r="2.5"> </circle>
	<circle id="XMLID_3538_" cx="59.6" cy="166.4" r="5.9"> </circle>
	<circle id="XMLID_3537_" cx="61.1" cy="173.2" r="4.7"> </circle>
	<circle id="XMLID_3536_" cx="61.2" cy="179.4" r="2.5"> </circle>
	<circle id="XMLID_3535_" cx="65" cy="189.8" r="2.2"> </circle>
	<circle id="XMLID_3534_" cx="69.8" cy="199" r="3.2"> </circle>
	<circle id="XMLID_3533_" cx="71.9" cy="207.2" r="2.1"> </circle>
	<circle id="XMLID_3532_" cx="75.7" cy="211.8" r="3.9"> </circle>
	<circle id="XMLID_3531_" cx="78.7" cy="215.7" r="5.2"> </circle>
	<circle id="XMLID_3530_" cx="82.9" cy="225.1" r="5.7"> </circle>

</g>
</svg>
